Aakhiyan - Mirza (The Untold Story) (2012) - Video Song- XviD - MP3 - DrC

File Info :

General

Format                                   : AVI
Format/Info                              : Audio Video Interleave
File size                                : 17.1 MiB
Duration                                 : 2mn 25s
Overall bit rate                         : 983 Kbps

Video

Format                                   : MPEG-4 Visual
Format profile                           : Advanced Simple@L5
Format settings, BVOP                    : 2
Format settings, QPel                    : Yes
Format settings, GMC                     : No warppoints
Format settings, Matrix                  : Default (H.263)
Codec ID                                 : XVID
Codec ID/Hint                            : XviD
Duration                                 : 2mn 25s
Bit rate                                 : 897 Kbps
Width                                    : 720 pixels
Height                                   : 304 pixels
Display aspect ratio                     : 2.35:1
Frame rate                               : 25.000 fps
Color space                              : YUV
Chroma subsampling                       : 4:2:0
Bit depth                                : 8 bits
Scan type                                : Progressive
Compression mode                         : Lossy
Bits/(Pixel*Frame)                       : 0.164
Stream size                              : 15.6 MiB (91%)
Writing library                          : XviD 1.2.1 (UTC 2008-12-04)

Audio

Format                                   : MPEG Audio
Format version                           : Version 1
Format profile                           : Layer 3
Mode                                     : Joint stereo
Mode extension                           : MS Stereo
Codec ID                                 : 55
Codec ID/Hint                            : MP3
Duration                                 : 2mn 24s
Bit rate mode                            : Constant
Bit rate                                 : 80.0 Kbps
Channel(s)                               : 2 channels
Sampling rate                            : 32.0 KHz
Compression mode                         : Lossy
Stream size                              : 1.38 MiB (8%)
Alignment                                : Aligned on interleaves
Interleave, duration                     : 161 ms (4.02 video frames)
Interleave, preload duration             : 216 ms




Screenshots :
 
http://i.imgur.com/rKsFH.png 
http://i.imgur.com/8k9Pt.png 
http://i.imgur.com/pt6ni.png 
http://i.imgur.com/unPeK.png